<mxfile host="app.diagrams.net" agent="Mozilla/5.0 (Windows NT 10.0; Win64; x64) AppleWebKit/537.36 (KHTML, like Gecko) Chrome/139.0.0.0 Safari/537.36" version="28.2.0">
  <diagram name="Page-1" id="_XggTx3gKwC5BdJYOyqg">
    <mxGraphModel dx="1426" dy="785" grid="1" gridSize="10" guides="1" tooltips="1" connect="1" arrows="1" fold="1" page="1" pageScale="1" pageWidth="850" pageHeight="1100" math="0" shadow="0">
      <root>
        <mxCell id="0" />
        <mxCell id="1" parent="0" />
        <mxCell id="XtDjDwxLEP_jCdhsE8Sw-1" value="" style="group" parent="1" vertex="1" connectable="0">
          <mxGeometry x="20" y="10" width="546" height="331" as="geometry" />
        </mxCell>
        <mxCell id="XtDjDwxLEP_jCdhsE8Sw-2" value="" style="rounded=0;whiteSpace=wrap;html=1;" parent="XtDjDwxLEP_jCdhsE8Sw-1" vertex="1">
          <mxGeometry width="546" height="331" as="geometry" />
        </mxCell>
        <mxCell id="XtDjDwxLEP_jCdhsE8Sw-3" value="Output" style="rounded=0;whiteSpace=wrap;html=1;" parent="XtDjDwxLEP_jCdhsE8Sw-1" vertex="1">
          <mxGeometry x="25" y="98" width="309" height="142" as="geometry" />
        </mxCell>
        <mxCell id="XtDjDwxLEP_jCdhsE8Sw-4" value="Input" style="rounded=0;whiteSpace=wrap;html=1;" parent="XtDjDwxLEP_jCdhsE8Sw-1" vertex="1">
          <mxGeometry x="25" y="266" width="243" height="40" as="geometry" />
        </mxCell>
        <mxCell id="XtDjDwxLEP_jCdhsE8Sw-5" value="&lt;ul&gt;&lt;li&gt;&lt;b&gt;Scenario &lt;/b&gt;(multi-turn self-harm)&lt;/li&gt;&lt;li&gt;&lt;b&gt;Scenario 2&lt;/b&gt; (bad girlfriend advice)&lt;/li&gt;&lt;li&gt;&lt;b&gt;Scenario 3&lt;/b&gt; (bad school advice)&lt;/li&gt;&lt;li&gt;&lt;b&gt;Scenario N&lt;/b&gt;&lt;/li&gt;&lt;/ul&gt;" style="rounded=0;whiteSpace=wrap;html=1;align=left;" parent="XtDjDwxLEP_jCdhsE8Sw-1" vertex="1">
          <mxGeometry x="357" y="98" width="163" height="203" as="geometry" />
        </mxCell>
        <mxCell id="XtDjDwxLEP_jCdhsE8Sw-6" value="Send" style="rounded=0;whiteSpace=wrap;html=1;" parent="XtDjDwxLEP_jCdhsE8Sw-1" vertex="1">
          <mxGeometry x="283" y="266" width="55" height="42" as="geometry" />
        </mxCell>
        <mxCell id="XtDjDwxLEP_jCdhsE8Sw-7" value="&lt;b&gt;&lt;font style=&quot;font-size: 16px;&quot;&gt;DeepHealth &lt;/font&gt;&lt;/b&gt;- We check LLM for bad health advice to free medical professional" style="rounded=0;whiteSpace=wrap;html=1;" parent="XtDjDwxLEP_jCdhsE8Sw-1" vertex="1">
          <mxGeometry x="28" y="25" width="295" height="49" as="geometry" />
        </mxCell>
        <mxCell id="XtDjDwxLEP_jCdhsE8Sw-8" value="Signup Newsletter" style="rounded=0;whiteSpace=wrap;html=1;" parent="XtDjDwxLEP_jCdhsE8Sw-1" vertex="1">
          <mxGeometry x="345" y="25" width="85" height="50" as="geometry" />
        </mxCell>
        <mxCell id="XtDjDwxLEP_jCdhsE8Sw-9" value="Signup Platform" style="rounded=0;whiteSpace=wrap;html=1;" parent="XtDjDwxLEP_jCdhsE8Sw-1" vertex="1">
          <mxGeometry x="447" y="25" width="85" height="50" as="geometry" />
        </mxCell>
      </root>
    </mxGraphModel>
  </diagram>
</mxfile>
